<?xml version="1.0" encoding="UTF-8" standalone="no"?>
<!-- Created with Inkscape (http://www.inkscape.org/) -->

<svg
   xmlns:dc="http://purl.org/dc/elements/1.1/"
   xmlns:cc="http://creativecommons.org/ns#"
   xmlns:rdf="http://www.w3.org/1999/02/22-rdf-syntax-ns#"
   xmlns:svg="http://www.w3.org/2000/svg"
   xmlns="http://www.w3.org/2000/svg"
   xmlns:xlink="http://www.w3.org/1999/xlink"
   xmlns:sodipodi="http://sodipodi.sourceforge.net/DTD/sodipodi-0.dtd"
   xmlns:inkscape="http://www.inkscape.org/namespaces/inkscape"
   width="16.72336"
   height="25"
   id="svg3167"
   version="1.1"
   inkscape:version="0.48.1 r9760"
   sodipodi:docname="ic_stat_notify_teammeet.svg"
   style="enable-background:new"
   inkscape:export-filename="/media/devel/teammeet/teammeet.git/artwork/ldpi/ic_stat_notify_teammeet.png"
   inkscape:export-xdpi="90"
   inkscape:export-ydpi="90">
  <defs
     id="defs3169">
    <linearGradient
       id="linearGradient3888">
      <stop
         style="stop-color:#919191;stop-opacity:1;"
         offset="0"
         id="stop3890" />
      <stop
         style="stop-color:#828282;stop-opacity:1;"
         offset="1"
         id="stop3892" />
    </linearGradient>
    <linearGradient
       inkscape:collect="always"
       id="linearGradient3870">
      <stop
         style="stop-color:#000000;stop-opacity:1;"
         offset="0"
         id="stop3872" />
      <stop
         style="stop-color:#000000;stop-opacity:0;"
         offset="1"
         id="stop3874" />
    </linearGradient>
    <linearGradient
       id="linearGradient3854">
      <stop
         style="stop-color:#000000;stop-opacity:1;"
         offset="0"
         id="stop3856" />
      <stop
         id="stop3862"
         offset="0.25"
         style="stop-color:#000000;stop-opacity:0.74901961;" />
      <stop
         id="stop3860"
         offset="0.5"
         style="stop-color:#919000;stop-opacity:0;" />
      <stop
         style="stop-color:#828282;stop-opacity:0;"
         offset="1"
         id="stop3858" />
    </linearGradient>
    <linearGradient
       inkscape:collect="always"
       xlink:href="#linearGradient3854"
       id="linearGradient3846"
       x1="234.71681"
       y1="612.06427"
       x2="306.41379"
       y2="612.06427"
       gradientUnits="userSpaceOnUse" />
    <linearGradient
       inkscape:collect="always"
       xlink:href="#linearGradient3870"
       id="linearGradient3876"
       x1="234.71681"
       y1="612.06427"
       x2="306.41379"
       y2="612.06427"
       gradientUnits="userSpaceOnUse" />
    <linearGradient
       inkscape:collect="always"
       xlink:href="#linearGradient3888"
       id="linearGradient3894"
       x1="234.71681"
       y1="640.6217"
       x2="246.71681"
       y2="640.6217"
       gradientUnits="userSpaceOnUse" />
    <linearGradient
       inkscape:collect="always"
       xlink:href="#linearGradient3888"
       id="linearGradient3904"
       gradientUnits="userSpaceOnUse"
       x1="234.71681"
       y1="640.6217"
       x2="246.71681"
       y2="640.6217" />
    <linearGradient
       inkscape:collect="always"
       xlink:href="#linearGradient3888"
       id="linearGradient3906"
       gradientUnits="userSpaceOnUse"
       x1="234.71681"
       y1="640.6217"
       x2="246.71681"
       y2="640.6217" />
    <linearGradient
       inkscape:collect="always"
       xlink:href="#linearGradient3888"
       id="linearGradient3908"
       gradientUnits="userSpaceOnUse"
       x1="234.71681"
       y1="640.6217"
       x2="246.71681"
       y2="640.6217" />
    <linearGradient
       inkscape:collect="always"
       xlink:href="#linearGradient3888"
       id="linearGradient3910"
       gradientUnits="userSpaceOnUse"
       x1="234.71681"
       y1="640.6217"
       x2="246.71681"
       y2="640.6217" />
  </defs>
  <sodipodi:namedview
     id="base"
     pagecolor="#bebebe"
     bordercolor="#666666"
     borderopacity="1.0"
     inkscape:pageopacity="0"
     inkscape:pageshadow="2"
     inkscape:zoom="4.1041667"
     inkscape:cx="4.9949518"
     inkscape:cy="38.499983"
     inkscape:document-units="px"
     inkscape:current-layer="layer1"
     showgrid="false"
     inkscape:window-width="1022"
     inkscape:window-height="671"
     inkscape:window-x="0"
     inkscape:window-y="64"
     inkscape:window-maximized="0"
     fit-margin-top="4.5"
     fit-margin-left="0"
     fit-margin-right="0"
     fit-margin-bottom="4.5"
     inkscape:showpageshadow="false" />
  <metadata
     id="metadata3172">
    <rdf:RDF>
      <cc:Work
         rdf:about="">
        <dc:format>image/svg+xml</dc:format>
        <dc:type
           rdf:resource="http://purl.org/dc/dcmitype/StillImage" />
        <dc:title></dc:title>
      </cc:Work>
    </rdf:RDF>
  </metadata>
  <g
     inkscape:groupmode="layer"
     id="layer3"
     inkscape:label="background"
     style="display:inline"
     sodipodi:insensitive="true"
     transform="translate(-4.999961,-202.33999)">
    <rect
       style="fill:#000000;fill-opacity:0;stroke:none"
       id="rect4741"
       width="171.3578"
       height="226.23372"
       x="0.51769727"
       y="-0.71653765" />
    <rect
       style="fill:#000000;fill-opacity:0;stroke:none"
       id="rect4743"
       width="239.17615"
       height="195.68958"
       x="-6.7300649"
       y="29.309904"
       ry="57.982098" />
  </g>
  <g
     inkscape:label="logo"
     inkscape:groupmode="layer"
     id="layer1"
     transform="translate(-234.71681,-625.86216)"
     style="display:inline">
    <g
       id="g3864"
       style="fill:url(#linearGradient3894);fill-opacity:1"
       transform="matrix(1.3936133,0,0,1.3936133,-92.387656,-254.41674)">
      <g
         style="fill:url(#linearGradient3910);fill-opacity:1"
         transform="matrix(0.16737104,0,0,0.16737104,195.43201,538.17985)"
         id="g3778">
        <path
           style="fill:url(#linearGradient3904);fill-opacity:1"
           inkscape:connector-curvature="0"
           d="m 247.84431,577.76637 v 6.17073 c -1.70959,1.02846 -3.09223,2.51971 -4.15217,4.47378 -1.05995,1.95406 -1.86559,4.37093 -2.41052,7.2506 l -0.51287,2.98253 c -0.13677,1.097 -0.47869,1.91976 -1.02362,2.46827 -0.54921,0.55067 -1.2309,0.82277 -2.05364,0.82277 -0.88899,0 -1.60701,-0.30853 -2.15408,-0.92561 -0.54707,-0.61707 -0.8206,-1.40555 -0.8206,-2.36543 v -20.87764 h 13.1275 z m 26.46654,59.03329 c 0,1.30271 0.15387,2.19404 0.46159,2.67399 0.30773,0.47994 1.04071,0.89133 2.20537,1.23414 0.20515,0.0686 0.39321,0.11999 0.56417,0.15213 0.16882,0.0364 0.35901,0.0878 0.56416,0.15426 0.75435,0.13712 1.35058,0.42853 1.79507,0.87419 0.44449,0.44567 0.66887,1.01346 0.66887,1.69694 0,0.9599 -0.35901,1.66268 -1.07704,2.10835 -0.71802,0.44567 -1.86345,0.66849 -3.43413,0.66849 h -1.64335 -22.46611 -1.74165 c -1.50443,0 -2.61566,-0.22282 -3.33369,-0.66849 -0.71803,-0.44567 -1.07704,-1.14845 -1.07704,-2.10835 0,-0.68348 0.20515,-1.25127 0.61332,-1.69694 0.41029,-0.44566 0.99156,-0.73707 1.74378,-0.87419 0.27139,-0.0664 0.51287,-0.11998 0.71802,-0.15426 0.20515,-0.0343 0.37611,-0.0836 0.51288,-0.15213 1.16038,-0.34281 1.87841,-0.75635 2.15408,-1.23414 0.2714,-0.47995 0.40816,-1.33699 0.40816,-2.57114 v -59.13614 h 22.36354 v 59.03329 z m 17.23051,-38.36135 c 0,1.02845 -0.27353,1.85121 -0.8206,2.46828 -0.54921,0.61707 -1.26723,0.92561 -2.15408,0.92561 -0.8206,0 -1.50444,-0.29139 -2.05151,-0.87418 -0.5492,-0.58065 -0.92531,-1.35413 -1.12832,-2.31401 l -0.51288,-3.18821 c -0.47869,-2.81112 -1.248,-5.1937 -2.30794,-7.14777 -1.05995,-1.95406 -2.44685,-3.4089 -4.15217,-4.37093 v -6.17073 h 13.12964 v 20.67194 z"
           id="path3127-1" />
        <g
           style="fill:url(#linearGradient3908);fill-opacity:1"
           id="g4661"
           transform="matrix(0.70390479,0,0,0.70390479,4.6211272,155.48556)">
          <path
             style="fill:url(#linearGradient3906);fill-opacity:1;stroke:none"
             inkscape:connector-curvature="0"
             d="m 411.93311,678.50761 2.01692,-7.10046 v 7.77212 l -5.42647,18.18291 h -1.20055 l -9.12415,-26.96252 c -0.032,-0.096 -0.071,-0.1989 -0.12006,-0.31185 -0.048,-0.11194 -0.088,-0.23088 -0.11905,-0.35982 -0.22511,-0.51174 -0.46521,-0.87956 -0.72133,-1.10344 -0.25612,-0.22389 -0.60828,-0.38381 -1.05648,-0.47976 -0.51324,-0.096 -0.89641,-0.26387 -1.15253,-0.50375 -0.25611,-0.23988 -0.38417,-0.55172 -0.38417,-0.93553 0,-0.41579 0.15107,-0.73563 0.45621,-0.95952 0.30413,-0.22389 0.71232,-0.33583 1.22455,-0.33583 l 10.99701,-0.048 4.6101,13.14543 z m -11.28514,4.74962 v 7.05248 c 0,1.08746 0.14407,1.95102 0.4322,2.5907 0.28813,0.64068 0.75234,1.16742 1.39363,1.58321 l 0.8644,0.47876 c 0.31914,0.22489 0.55225,0.43278 0.69531,0.62369 0.14507,0.1919 0.2161,0.41679 0.2161,0.67266 0,0.38381 -0.15107,0.66367 -0.45621,0.83958 -0.30414,0.17591 -0.74334,0.26387 -1.3196,0.26387 h -5.85867 c -0.57626,0 -1.01646,-0.088 -1.3196,-0.26387 -0.30514,-0.17591 -0.4562,-0.47176 -0.4562,-0.88855 0,-0.15892 0.023,-0.29486 0.071,-0.4068 0.049,-0.11194 0.13606,-0.21689 0.26512,-0.31284 0.031,-0.031 0.088,-0.0719 0.16808,-0.11994 0.079,-0.048 0.16807,-0.10395 0.26412,-0.16792 0.8964,-0.47876 1.5527,-1.11844 1.96889,-1.91904 0.41619,-0.7996 0.62429,-1.77511 0.62429,-2.92653 v -14.2009 l 2.44711,7.10144 z m 25.73872,-17.89505 h 0.62428 c 0.57627,0.064 1.00946,0.1919 1.2976,0.38381 0.28713,0.1919 0.43219,0.51174 0.43219,0.95952 0,0.28785 -0.072,0.53573 -0.2161,0.74363 -0.14506,0.20789 -0.37717,0.35982 -0.69631,0.45577 -0.12806,0.032 -0.25712,0.0719 -0.38418,0.11994 -0.12806,0.048 -0.24011,0.0879 -0.33615,0.11994 -0.35316,0.16092 -0.56826,0.33583 -0.6483,0.52773 -0.08,0.19191 -0.12005,0.52774 -0.12005,1.0075 v 23.4113 c 0,0.51274 0.04,0.86356 0.12005,1.05647 0.08,0.1909 0.29614,0.36782 0.6483,0.52673 0.096,0.033 0.20809,0.0719 0.33615,0.11994 0.12706,0.049 0.25612,0.0889 0.38418,0.11994 0.31914,0.097 0.55225,0.24788 0.69631,0.45578 0.14407,0.20889 0.2161,0.45577 0.2161,0.74362 0,0.4158 -0.14506,0.72864 -0.43219,0.93654 -0.28814,0.20789 -0.72133,0.31184 -1.2976,0.31184 h -0.62428 -10.51679 -0.81537 c -0.70532,0 -1.22556,-0.10395 -1.56171,-0.31184 -0.33615,-0.2079 -0.50423,-0.53574 -0.50423,-0.98351 0,-0.31884 0.096,-0.58371 0.28813,-0.79161 0.19209,-0.20789 0.46421,-0.34382 0.81637,-0.40779 0.12706,-0.0309 0.23911,-0.056 0.33616,-0.0719 0.096,-0.016 0.17508,-0.039 0.2391,-0.071 0.54425,-0.15992 0.88041,-0.35282 1.00946,-0.57571 0.12706,-0.22389 0.19109,-0.62369 0.19109,-1.1994 v -27.58621 h 10.51779 z"
             id="path4544" />
        </g>
      </g>
    </g>
  </g>
</svg>
