<?xml version="1.0" encoding="UTF-8" standalone="no"?>
<!-- Created with Inkscape (http://www.inkscape.org/) -->

<svg
   xmlns:dc="http://purl.org/dc/elements/1.1/"
   xmlns:cc="http://creativecommons.org/ns#"
   xmlns:rdf="http://www.w3.org/1999/02/22-rdf-syntax-ns#"
   xmlns:svg="http://www.w3.org/2000/svg"
   xmlns="http://www.w3.org/2000/svg"
   xmlns:sodipodi="http://sodipodi.sourceforge.net/DTD/sodipodi-0.dtd"
   xmlns:inkscape="http://www.inkscape.org/namespaces/inkscape"
   width="278.84"
   height="278.84"
   id="svg3167"
   version="1.1"
   inkscape:version="0.48.3.1 r9886"
   sodipodi:docname="logo_cropped.svg"
   enable-background="new">
  <defs
     id="defs3169" />
  <sodipodi:namedview
     id="base"
     pagecolor="#bebebe"
     bordercolor="#666666"
     borderopacity="1.0"
     inkscape:pageopacity="1"
     inkscape:pageshadow="2"
     inkscape:zoom="1.9316308"
     inkscape:cx="116.02876"
     inkscape:cy="136.00309"
     inkscape:document-units="px"
     inkscape:current-layer="layer1"
     showgrid="false"
     inkscape:window-width="1223"
     inkscape:window-height="1135"
     inkscape:window-x="695"
     inkscape:window-y="32"
     inkscape:window-maximized="0"
     fit-margin-top="5"
     fit-margin-left="5"
     fit-margin-right="5"
     fit-margin-bottom="5" />
  <metadata
     id="metadata3172">
    <rdf:RDF>
      <cc:Work
         rdf:about="">
        <dc:format>image/svg+xml</dc:format>
        <dc:type
           rdf:resource="http://purl.org/dc/dcmitype/StillImage" />
        <dc:title></dc:title>
      </cc:Work>
    </rdf:RDF>
  </metadata>
  <g
     inkscape:groupmode="layer"
     id="layer3"
     inkscape:label="background"
     style="display:inline"
     sodipodi:insensitive="true">
    <rect
       style="fill:#000000;fill-opacity:0;stroke:none"
       id="rect4741"
       width="171.3578"
       height="226.23372"
       x="0.51769727"
       y="-0.71653765" />
    <rect
       style="fill:#000000;fill-opacity:0;stroke:none"
       id="rect4743"
       width="239.17615"
       height="195.68958"
       x="-6.7300649"
       y="29.309904"
       ry="57.982098" />
  </g>
  <g
     inkscape:label="logo"
     inkscape:groupmode="layer"
     id="layer1"
     transform="translate(-229.71681,-423.52217)"
     style="display:inline">
    <path
       style="fill:#ffffff;fill-opacity:1"
       inkscape:connector-curvature="0"
       d="m 271.47914,468.26616 v 17.28055 c -4.78755,2.88009 -8.65948,7.05621 -11.62774,12.52838 -2.96829,5.47218 -5.22441,12.24038 -6.75044,20.30462 l -1.43625,8.3523 c -0.38301,3.07204 -1.34052,5.37612 -2.86655,6.91217 -1.538,1.54209 -3.44703,2.30407 -5.75103,2.30407 -2.48952,0 -4.50029,-0.86401 -6.0323,-2.59207 -1.53201,-1.72806 -2.29802,-3.9361 -2.29802,-6.62417 v -58.46585 h 36.76233 z m 74.11707,165.31715 c 0,3.64813 0.43088,6.14421 1.29264,7.48826 0.86175,1.34403 2.91441,2.49608 6.17593,3.45611 0.5745,0.192 1.10113,0.336 1.57989,0.426 0.47276,0.10197 1.00537,0.24601 1.57988,0.432 2.11249,0.384 3.78216,1.20005 5.02692,2.44809 1.24475,1.24806 1.87312,2.8381 1.87312,4.75213 0,2.6881 -1.00537,4.65618 -3.01615,5.90422 -2.01076,1.24805 -5.21842,1.87204 -9.61697,1.87204 h -4.60203 -62.91424 -4.87731 c -4.21303,0 -7.32493,-0.62399 -9.33569,-1.87204 -2.01077,-1.24804 -3.01616,-3.21612 -3.01616,-5.90422 0,-1.91403 0.57451,-3.50407 1.71754,-4.75213 1.149,-1.24804 2.77677,-2.06409 4.8833,-2.44809 0.76001,-0.18599 1.43625,-0.336 2.01075,-0.432 0.57451,-0.096 1.05326,-0.234 1.43627,-0.426 3.24954,-0.96003 5.2603,-2.11811 6.03229,-3.45611 0.76003,-1.34405 1.14302,-3.74412 1.14302,-7.20024 V 468.26616 h 62.627 v 165.31715 z m 48.25242,-107.42733 c 0,2.88008 -0.76601,5.18412 -2.29802,6.91219 -1.53801,1.72804 -3.54877,2.59207 -6.03231,2.59207 -2.29801,0 -4.21304,-0.816 -5.74504,-2.44806 -1.53799,-1.62605 -2.59127,-3.7921 -3.15978,-6.48017 l -1.43626,-8.92829 c -1.34052,-7.87227 -3.4949,-14.54445 -6.46318,-20.01663 -2.96827,-5.47217 -6.85216,-9.54631 -11.62774,-12.24038 v -17.28055 h 36.76831 v 57.88982 z"
       id="path3127-1" />
    <path
       id="path4505"
       d="m 381.875,643.72044 v 3.234 c 0,0.381 -0.072,0.643 -0.216,0.785 -0.144,0.142 -0.393,0.214 -0.744,0.214 h -10.08 c -0.353,0.032 -0.6,-0.024 -0.744,-0.169 -0.144,-0.145 -0.216,-0.396 -0.216,-0.751 v -3.343 c 0,-0.323 0.072,-0.557 0.216,-0.702 0.144,-0.145 0.392,-0.218 0.744,-0.218 h 10.08 c 0.352,0.032 0.6,0.119 0.744,0.262 0.144,0.143 0.216,0.389 0.216,0.737 v -0.049 z"
       inkscape:connector-curvature="0"
       style="fill:#ffffff;fill-opacity:1" />
    <g
       id="g4664"
       transform="translate(-8.30024,-37.000018)"
       style="fill:#000000;fill-opacity:1">
      <g
         id="g4661"
         style="fill:#000000;fill-opacity:1">
        <path
           id="path4544"
           d="m 411.93311,678.50761 2.01692,-7.10046 v 7.77212 l -5.42647,18.18291 h -1.20055 l -9.12415,-26.96252 c -0.032,-0.096 -0.071,-0.1989 -0.12006,-0.31185 -0.048,-0.11194 -0.088,-0.23088 -0.11905,-0.35982 -0.22511,-0.51174 -0.46521,-0.87956 -0.72133,-1.10344 -0.25612,-0.22389 -0.60828,-0.38381 -1.05648,-0.47976 -0.51324,-0.096 -0.89641,-0.26387 -1.15253,-0.50375 -0.25611,-0.23988 -0.38417,-0.55172 -0.38417,-0.93553 0,-0.41579 0.15107,-0.73563 0.45621,-0.95952 0.30413,-0.22389 0.71232,-0.33583 1.22455,-0.33583 l 10.99701,-0.048 4.6101,13.14543 z m -11.28514,4.74962 v 7.05248 c 0,1.08746 0.14407,1.95102 0.4322,2.5907 0.28813,0.64068 0.75234,1.16742 1.39363,1.58321 l 0.8644,0.47876 c 0.31914,0.22489 0.55225,0.43278 0.69531,0.62369 0.14507,0.1919 0.2161,0.41679 0.2161,0.67266 0,0.38381 -0.15107,0.66367 -0.45621,0.83958 -0.30414,0.17591 -0.74334,0.26387 -1.3196,0.26387 h -5.85867 c -0.57626,0 -1.01646,-0.088 -1.3196,-0.26387 -0.30514,-0.17591 -0.4562,-0.47176 -0.4562,-0.88855 0,-0.15892 0.023,-0.29486 0.071,-0.4068 0.049,-0.11194 0.13606,-0.21689 0.26512,-0.31284 0.031,-0.031 0.088,-0.0719 0.16808,-0.11994 0.079,-0.048 0.16807,-0.10395 0.26412,-0.16792 0.8964,-0.47876 1.5527,-1.11844 1.96889,-1.91904 0.41619,-0.7996 0.62429,-1.77511 0.62429,-2.92653 v -14.2009 l 2.44711,7.10144 z m 25.73872,-17.89505 h 0.62428 c 0.57627,0.064 1.00946,0.1919 1.2976,0.38381 0.28713,0.1919 0.43219,0.51174 0.43219,0.95952 0,0.28785 -0.072,0.53573 -0.2161,0.74363 -0.14506,0.20789 -0.37717,0.35982 -0.69631,0.45577 -0.12806,0.032 -0.25712,0.0719 -0.38418,0.11994 -0.12806,0.048 -0.24011,0.0879 -0.33615,0.11994 -0.35316,0.16092 -0.56826,0.33583 -0.6483,0.52773 -0.08,0.19191 -0.12005,0.52774 -0.12005,1.0075 v 23.4113 c 0,0.51274 0.04,0.86356 0.12005,1.05647 0.08,0.1909 0.29614,0.36782 0.6483,0.52673 0.096,0.033 0.20809,0.0719 0.33615,0.11994 0.12706,0.049 0.25612,0.0889 0.38418,0.11994 0.31914,0.097 0.55225,0.24788 0.69631,0.45578 0.14407,0.20889 0.2161,0.45577 0.2161,0.74362 0,0.4158 -0.14506,0.72864 -0.43219,0.93654 -0.28814,0.20789 -0.72133,0.31184 -1.2976,0.31184 h -0.62428 -10.51679 -0.81537 c -0.70532,0 -1.22556,-0.10395 -1.56171,-0.31184 -0.33615,-0.2079 -0.50423,-0.53574 -0.50423,-0.98351 0,-0.31884 0.096,-0.58371 0.28813,-0.79161 0.19209,-0.20789 0.46421,-0.34382 0.81637,-0.40779 0.12706,-0.0309 0.23911,-0.056 0.33616,-0.0719 0.096,-0.016 0.17508,-0.039 0.2391,-0.071 0.54425,-0.15992 0.88041,-0.35282 1.00946,-0.57571 0.12706,-0.22389 0.19109,-0.62369 0.19109,-1.1994 v -27.58621 h 10.51779 z"
           inkscape:connector-curvature="0"
           style="fill:#ffffff;fill-opacity:1;stroke:none" />
      </g>
      <path
         d="m 444.19507,697.36218 h -10.464 -0.624 c -0.608,0 -1.057,-0.10394 -1.345,-0.31183 -0.287,-0.20789 -0.432,-0.52073 -0.432,-0.93651 0,-0.28784 0.079,-0.53471 0.24,-0.7436 0.159,-0.20789 0.399,-0.35881 0.72,-0.45576 0.128,-0.031 0.248,-0.071 0.36,-0.11994 0.111,-0.048 0.216,-0.087 0.312,-0.11993 0.352,-0.15892 0.568,-0.33582 0.648,-0.52672 0.079,-0.1919 0.12,-0.52772 0.12,-1.00747 v -23.50851 c 0,-0.44776 -0.041,-0.76759 -0.12,-0.95949 -0.08,-0.1919 -0.297,-0.3668 -0.648,-0.52772 -0.096,-0.032 -0.2,-0.072 -0.312,-0.11993 -0.112,-0.048 -0.232,-0.088 -0.36,-0.11994 -0.32,-0.0959 -0.561,-0.24787 -0.72,-0.45576 -0.161,-0.20789 -0.24,-0.45576 -0.24,-0.7436 0,-0.44777 0.151,-0.77459 0.456,-0.98348 0.304,-0.20789 0.744,-0.31184 1.32,-0.31184 l 0.624,-0.048 h 10.464 v 32 z m 11.472,-31.999 v 8.34756 c 0,0.51173 -0.088,0.87954 -0.264,1.10342 -0.177,0.22388 -0.473,0.33582 -0.889,0.33582 -0.319,0 -0.56,-0.055 -0.72,-0.16791 -0.16,-0.11194 -0.305,-0.32783 -0.432,-0.64766 -0.032,-0.031 -0.057,-0.072 -0.072,-0.11993 -0.017,-0.048 -0.023,-0.087 -0.023,-0.11994 -0.608,-1.85501 -1.488,-3.25427 -2.641,-4.19777 -1.151,-0.9425 -2.64,-1.5112 -4.464,-1.70309 v -2.8305 h 9.505 z m -9.504,14.34438 c 0.896,-0.41578 1.56,-0.87154 1.992,-1.36727 0.432,-0.49574 0.744,-1.17538 0.936,-2.03892 0.16,-0.60768 0.328,-1.02346 0.504,-1.24734 0.176,-0.22388 0.472,-0.33582 0.889,-0.33582 0.447,0 0.751,0.13593 0.912,0.40778 0.159,0.27186 0.239,0.79158 0.239,1.55917 v 8.82732 c 0,0.76759 -0.08,1.28831 -0.239,1.55917 -0.161,0.27185 -0.465,0.40778 -0.912,0.40778 -0.353,0 -0.624,-0.10394 -0.816,-0.31183 -0.191,-0.20789 -0.368,-0.5667 -0.528,-1.07943 -0.256,-1.08742 -0.624,-1.91898 -1.104,-2.49468 -0.48,-0.57569 -1.104,-0.95949 -1.872,-1.15138 v -2.73455 z m 0,15.11197 c 1.888,-0.22388 3.408,-0.83156 4.56,-1.82303 1.152,-0.99047 2.064,-2.41472 2.736,-4.26973 0.031,-0.096 0.072,-0.1919 0.12,-0.28785 0.048,-0.096 0.088,-0.17491 0.12,-0.23987 0.159,-0.28785 0.312,-0.48674 0.456,-0.59968 0.144,-0.11194 0.344,-0.16791 0.6,-0.16791 0.48,0 0.808,0.11993 0.984,0.3598 0.176,0.23988 0.264,0.69563 0.264,1.36728 v 8.20364 h -9.84 v -2.54265 z"
         id="path4582"
         inkscape:connector-curvature="0"
         style="fill:#ffffff;fill-opacity:1" />
      <path
         d="m 471.11534,697.36218 h -10.464 -0.624 c -0.608,0 -1.057,-0.10394 -1.345,-0.31183 -0.287,-0.20789 -0.432,-0.52073 -0.432,-0.93651 0,-0.28784 0.079,-0.53471 0.24,-0.7436 0.159,-0.20789 0.399,-0.35881 0.72,-0.45576 0.128,-0.031 0.248,-0.071 0.36,-0.11994 0.111,-0.048 0.216,-0.087 0.312,-0.11993 0.352,-0.15892 0.568,-0.33582 0.648,-0.52672 0.079,-0.1919 0.12,-0.52772 0.12,-1.00747 v -23.50851 c 0,-0.44776 -0.041,-0.76759 -0.12,-0.95949 -0.08,-0.1919 -0.297,-0.3668 -0.648,-0.52772 -0.096,-0.032 -0.2,-0.072 -0.312,-0.11993 -0.112,-0.048 -0.232,-0.088 -0.36,-0.11994 -0.32,-0.0959 -0.561,-0.24787 -0.72,-0.45576 -0.161,-0.20789 -0.24,-0.45576 -0.24,-0.7436 0,-0.44777 0.151,-0.77459 0.456,-0.98348 0.304,-0.20789 0.744,-0.31184 1.32,-0.31184 l 0.624,-0.048 h 10.464 v 32 z m 11.472,-31.999 v 8.34756 c 0,0.51173 -0.088,0.87954 -0.264,1.10342 -0.177,0.22388 -0.473,0.33582 -0.889,0.33582 -0.319,0 -0.56,-0.055 -0.72,-0.16791 -0.16,-0.11194 -0.305,-0.32783 -0.432,-0.64766 -0.032,-0.031 -0.057,-0.072 -0.072,-0.11993 -0.017,-0.048 -0.023,-0.087 -0.023,-0.11994 -0.608,-1.85501 -1.488,-3.25427 -2.641,-4.19777 -1.151,-0.9425 -2.64,-1.5112 -4.464,-1.70309 v -2.8305 h 9.505 z m -9.504,14.34438 c 0.896,-0.41578 1.56,-0.87154 1.992,-1.36727 0.432,-0.49574 0.744,-1.17538 0.936,-2.03892 0.16,-0.60768 0.328,-1.02346 0.504,-1.24734 0.176,-0.22388 0.472,-0.33582 0.889,-0.33582 0.447,0 0.751,0.13593 0.912,0.40778 0.159,0.27186 0.239,0.79158 0.239,1.55917 v 8.82732 c 0,0.76759 -0.08,1.28831 -0.239,1.55917 -0.161,0.27185 -0.465,0.40778 -0.912,0.40778 -0.353,0 -0.624,-0.10394 -0.816,-0.31183 -0.191,-0.20789 -0.368,-0.5667 -0.528,-1.07943 -0.256,-1.08742 -0.624,-1.91898 -1.104,-2.49468 -0.48,-0.57569 -1.104,-0.95949 -1.872,-1.15138 v -2.73455 z m 0,15.11197 c 1.888,-0.22388 3.408,-0.83156 4.56,-1.82303 1.152,-0.99047 2.064,-2.41472 2.736,-4.26973 0.031,-0.096 0.072,-0.1919 0.12,-0.28785 0.048,-0.096 0.088,-0.17491 0.12,-0.23987 0.159,-0.28785 0.312,-0.48674 0.456,-0.59968 0.144,-0.11194 0.344,-0.16791 0.6,-0.16791 0.48,0 0.808,0.11993 0.984,0.3598 0.176,0.23988 0.264,0.69563 0.264,1.36728 v 8.20364 h -9.84 v -2.54265 z"
         id="path4582-3"
         inkscape:connector-curvature="0"
         style="fill:#ffffff;fill-opacity:1" />
      <a
         transform="matrix(1,0,0,0.99953147,0,0.32673536)"
         id="a4640"
         style="fill:#000000;fill-opacity:1">
        <path
           style="fill:#ffffff;fill-opacity:1"
           inkscape:connector-curvature="0"
           id="path4620"
           d="m 491.407,665.34718 v 2.88 c -0.8,0.48 -1.447,1.176 -1.943,2.088 -0.496,0.912 -0.873,2.04 -1.128,3.384 l -0.24,1.392 c -0.064,0.512 -0.224,0.896 -0.479,1.152 -0.257,0.257 -0.576,0.384 -0.961,0.384 -0.416,0 -0.752,-0.144 -1.008,-0.432 -0.256,-0.288 -0.384,-0.656 -0.384,-1.104 v -9.744 h 6.143 z m 12.385,27.552 c 0,0.608 0.072,1.024 0.216,1.248 0.144,0.224 0.487,0.416 1.032,0.576 0.096,0.032 0.184,0.056 0.264,0.071 0.079,0.017 0.168,0.041 0.264,0.072 0.353,0.064 0.632,0.2 0.84,0.408 0.208,0.208 0.313,0.473 0.313,0.792 0,0.448 -0.168,0.776 -0.504,0.984 -0.336,0.208 -0.872,0.312 -1.607,0.312 h -0.769 -10.513 -0.815 c -0.704,0 -1.224,-0.104 -1.56,-0.312 -0.336,-0.208 -0.504,-0.536 -0.504,-0.984 0,-0.319 0.096,-0.584 0.287,-0.792 0.192,-0.208 0.464,-0.344 0.816,-0.408 0.127,-0.031 0.24,-0.056 0.336,-0.072 0.096,-0.016 0.176,-0.039 0.24,-0.071 0.543,-0.16 0.879,-0.353 1.008,-0.576 0.127,-0.224 0.191,-0.624 0.191,-1.2 v -27.6 h 10.465 v 27.552 z m 8.063,-17.904 c 0,0.48 -0.128,0.864 -0.384,1.152 -0.257,0.288 -0.593,0.432 -1.008,0.432 -0.384,0 -0.704,-0.136 -0.96,-0.408 -0.257,-0.271 -0.433,-0.632 -0.528,-1.08 l -0.24,-1.488 c -0.224,-1.312 -0.584,-2.424 -1.08,-3.336 -0.496,-0.912 -1.145,-1.591 -1.943,-2.04 v -2.88 h 6.144 v 9.648 z" />
      </a>
    </g>
  </g>
</svg>
